<mxfile host="app.diagrams.net" agent="Mozilla/5.0 (Windows NT 10.0; Win64; x64) AppleWebKit/537.36 (KHTML, like Gecko) Chrome/130.0.0.0 Safari/537.36" version="24.8.3">
  <diagram name="Page-1" id="uNXpM8GX55VVOr5tb7Le">
    <mxGraphModel dx="2457" dy="936" grid="1" gridSize="10" guides="1" tooltips="1" connect="1" arrows="1" fold="1" page="1" pageScale="1" pageWidth="827" pageHeight="1169" math="0" shadow="0">
      <root>
        <mxCell id="0" />
        <mxCell id="1" parent="0" />
        <mxCell id="aKMdua-5Uy_HJUvLc1qy-13" value="Member" style="swimlane;fontStyle=1;align=center;verticalAlign=top;childLayout=stackLayout;horizontal=1;startSize=26;horizontalStack=0;resizeParent=1;resizeParentMax=0;resizeLast=0;collapsible=1;marginBottom=0;whiteSpace=wrap;html=1;labelBackgroundColor=none;fillColor=#5D7F99;strokeColor=#D0CEE2;fontColor=#1A1A1A;rounded=1;" parent="1" vertex="1">
          <mxGeometry x="-270" y="770" width="340" height="220" as="geometry" />
        </mxCell>
        <mxCell id="aKMdua-5Uy_HJUvLc1qy-15" value="" style="line;strokeWidth=1;fillColor=none;align=left;verticalAlign=middle;spacingTop=-1;spacingLeft=3;spacingRight=3;rotatable=0;labelPosition=right;points=[];portConstraint=eastwest;strokeColor=#D0CEE2;labelBackgroundColor=none;fontColor=#1A1A1A;rounded=1;" parent="aKMdua-5Uy_HJUvLc1qy-13" vertex="1">
          <mxGeometry y="26" width="340" height="8" as="geometry" />
        </mxCell>
        <mxCell id="aKMdua-5Uy_HJUvLc1qy-14" value="-&amp;nbsp;memberID: String&lt;div&gt;- name: String&lt;/div&gt;&lt;div&gt;- membershipType: String&lt;/div&gt;&lt;div&gt;- email: String&lt;/div&gt;&lt;div&gt;- phoneNumber: String&lt;/div&gt;&lt;div&gt;- status: String&lt;/div&gt;" style="text;strokeColor=none;fillColor=none;align=left;verticalAlign=top;spacingLeft=4;spacingRight=4;overflow=hidden;rotatable=0;points=[[0,0.5],[1,0.5]];portConstraint=eastwest;whiteSpace=wrap;html=1;labelBackgroundColor=none;fontColor=#1A1A1A;rounded=1;" parent="aKMdua-5Uy_HJUvLc1qy-13" vertex="1">
          <mxGeometry y="34" width="340" height="94" as="geometry" />
        </mxCell>
        <mxCell id="aKMdua-5Uy_HJUvLc1qy-16" value="&lt;div&gt;+ Member(&lt;span style=&quot;background-color: initial;&quot;&gt;memberID: String,&amp;nbsp;&lt;/span&gt;&lt;span style=&quot;background-color: initial;&quot;&gt;name: String,&amp;nbsp;&lt;/span&gt;&lt;span style=&quot;background-color: initial;&quot;&gt;membershipType:&amp;nbsp;&lt;/span&gt;String&lt;span style=&quot;background-color: initial;&quot;&gt;,&amp;nbsp;&lt;/span&gt;&lt;span style=&quot;background-color: initial;&quot;&gt;email: String,&amp;nbsp;&lt;/span&gt;&lt;span style=&quot;background-color: initial;&quot;&gt;phoneNumber: String,&amp;nbsp;&lt;/span&gt;&lt;span style=&quot;background-color: initial;&quot;&gt;status:&amp;nbsp;&lt;/span&gt;String&lt;span style=&quot;background-color: initial;&quot;&gt;)&lt;/span&gt;&lt;/div&gt;+&amp;nbsp;lineRepresentation: String&lt;div&gt;+&amp;nbsp;getSearchKey: String&lt;/div&gt;" style="text;strokeColor=none;fillColor=none;align=left;verticalAlign=top;spacingLeft=4;spacingRight=4;overflow=hidden;rotatable=0;points=[[0,0.5],[1,0.5]];portConstraint=eastwest;whiteSpace=wrap;html=1;labelBackgroundColor=none;fontColor=#1A1A1A;rounded=1;" parent="aKMdua-5Uy_HJUvLc1qy-13" vertex="1">
          <mxGeometry y="128" width="340" height="92" as="geometry" />
        </mxCell>
        <mxCell id="aKMdua-5Uy_HJUvLc1qy-18" value="MemberDatabase" style="swimlane;fontStyle=1;align=center;verticalAlign=top;childLayout=stackLayout;horizontal=1;startSize=26;horizontalStack=0;resizeParent=1;resizeParentMax=0;resizeLast=0;collapsible=1;marginBottom=0;whiteSpace=wrap;html=1;labelBackgroundColor=none;fillColor=#5D7F99;strokeColor=#D0CEE2;fontColor=#1A1A1A;rounded=1;" parent="1" vertex="1">
          <mxGeometry x="-100" y="600.0000000000001" width="260" height="78" as="geometry" />
        </mxCell>
        <mxCell id="aKMdua-5Uy_HJUvLc1qy-19" value="- records: ArrayList&amp;lt;Member&amp;gt;&lt;div&gt;- filename: String&lt;/div&gt;" style="text;strokeColor=none;fillColor=none;align=left;verticalAlign=top;spacingLeft=4;spacingRight=4;overflow=hidden;rotatable=0;points=[[0,0.5],[1,0.5]];portConstraint=eastwest;whiteSpace=wrap;html=1;labelBackgroundColor=none;fontColor=#1A1A1A;rounded=1;" parent="aKMdua-5Uy_HJUvLc1qy-18" vertex="1">
          <mxGeometry y="26" width="260" height="44" as="geometry" />
        </mxCell>
        <mxCell id="aKMdua-5Uy_HJUvLc1qy-20" value="" style="line;strokeWidth=1;fillColor=none;align=left;verticalAlign=middle;spacingTop=-1;spacingLeft=3;spacingRight=3;rotatable=0;labelPosition=right;points=[];portConstraint=eastwest;strokeColor=#D0CEE2;labelBackgroundColor=none;fontColor=#1A1A1A;rounded=1;" parent="aKMdua-5Uy_HJUvLc1qy-18" vertex="1">
          <mxGeometry y="70" width="260" height="8" as="geometry" />
        </mxCell>
        <mxCell id="aKMdua-5Uy_HJUvLc1qy-26" value="ClassDatabase" style="swimlane;fontStyle=1;align=center;verticalAlign=top;childLayout=stackLayout;horizontal=1;startSize=26;horizontalStack=0;resizeParent=1;resizeParentMax=0;resizeLast=0;collapsible=1;marginBottom=0;whiteSpace=wrap;html=1;labelBackgroundColor=none;fillColor=#5D7F99;strokeColor=#D0CEE2;fontColor=#1A1A1A;rounded=1;" parent="1" vertex="1">
          <mxGeometry x="180" y="600.0000000000001" width="260" height="78" as="geometry" />
        </mxCell>
        <mxCell id="aKMdua-5Uy_HJUvLc1qy-27" value="- records: ArrayList&amp;lt;Class&amp;gt;&lt;div&gt;- fileName: String&lt;/div&gt;" style="text;strokeColor=none;fillColor=none;align=left;verticalAlign=top;spacingLeft=4;spacingRight=4;overflow=hidden;rotatable=0;points=[[0,0.5],[1,0.5]];portConstraint=eastwest;whiteSpace=wrap;html=1;labelBackgroundColor=none;fontColor=#1A1A1A;rounded=1;" parent="aKMdua-5Uy_HJUvLc1qy-26" vertex="1">
          <mxGeometry y="26" width="260" height="44" as="geometry" />
        </mxCell>
        <mxCell id="aKMdua-5Uy_HJUvLc1qy-28" value="" style="line;strokeWidth=1;fillColor=none;align=left;verticalAlign=middle;spacingTop=-1;spacingLeft=3;spacingRight=3;rotatable=0;labelPosition=right;points=[];portConstraint=eastwest;strokeColor=#D0CEE2;labelBackgroundColor=none;fontColor=#1A1A1A;rounded=1;" parent="aKMdua-5Uy_HJUvLc1qy-26" vertex="1">
          <mxGeometry y="70" width="260" height="8" as="geometry" />
        </mxCell>
        <mxCell id="aKMdua-5Uy_HJUvLc1qy-30" value="MemberClassRegistration" style="swimlane;fontStyle=1;align=center;verticalAlign=top;childLayout=stackLayout;horizontal=1;startSize=26;horizontalStack=0;resizeParent=1;resizeParentMax=0;resizeLast=0;collapsible=1;marginBottom=0;whiteSpace=wrap;html=1;labelBackgroundColor=none;fillColor=#5D7F99;strokeColor=#D0CEE2;fontColor=#1A1A1A;rounded=1;" parent="1" vertex="1">
          <mxGeometry x="450" y="770" width="390" height="250" as="geometry" />
        </mxCell>
        <mxCell id="aKMdua-5Uy_HJUvLc1qy-31" value="-&amp;nbsp;memberID:&amp;nbsp;String&lt;div&gt;- classID:&amp;nbsp;String&lt;div&gt;- status: MembershipStatus&lt;/div&gt;&lt;/div&gt;&lt;div&gt;- registrationDate: LocalDate&lt;br&gt;&lt;/div&gt;" style="text;strokeColor=none;fillColor=none;align=left;verticalAlign=top;spacingLeft=4;spacingRight=4;overflow=hidden;rotatable=0;points=[[0,0.5],[1,0.5]];portConstraint=eastwest;whiteSpace=wrap;html=1;labelBackgroundColor=none;fontColor=#1A1A1A;rounded=1;" parent="aKMdua-5Uy_HJUvLc1qy-30" vertex="1">
          <mxGeometry y="26" width="390" height="74" as="geometry" />
        </mxCell>
        <mxCell id="aKMdua-5Uy_HJUvLc1qy-32" value="" style="line;strokeWidth=1;fillColor=none;align=left;verticalAlign=middle;spacingTop=-1;spacingLeft=3;spacingRight=3;rotatable=0;labelPosition=right;points=[];portConstraint=eastwest;strokeColor=#D0CEE2;labelBackgroundColor=none;fontColor=#1A1A1A;rounded=1;" parent="aKMdua-5Uy_HJUvLc1qy-30" vertex="1">
          <mxGeometry y="100" width="390" height="8" as="geometry" />
        </mxCell>
        <mxCell id="aKMdua-5Uy_HJUvLc1qy-33" value="&lt;div style=&quot;&quot;&gt;+ MemberClassRegistration(&lt;span style=&quot;background-color: initial;&quot;&gt;memberID:&amp;nbsp;String,&amp;nbsp;&lt;/span&gt;&lt;span style=&quot;background-color: initial;&quot;&gt;classID:&amp;nbsp;String)&lt;/span&gt;&lt;/div&gt;&lt;div style=&quot;&quot;&gt;&lt;div&gt;+ MemberClassRegistration(&lt;span style=&quot;background-color: initial;&quot;&gt;memberID:&amp;nbsp;String,&amp;nbsp;&lt;/span&gt;&lt;span style=&quot;background-color: initial;&quot;&gt;classID:&amp;nbsp;String,&amp;nbsp;&lt;/span&gt;&lt;span style=&quot;background-color: initial;&quot;&gt;status: String,&amp;nbsp;&lt;/span&gt;&lt;span style=&quot;background-color: initial;&quot;&gt;registrationDate: LocalDate&lt;/span&gt;&lt;span style=&quot;background-color: initial;&quot;&gt;)&lt;/span&gt;&lt;/div&gt;&lt;div&gt;&lt;span style=&quot;background-color: initial;&quot;&gt;+&amp;nbsp;&lt;/span&gt;&lt;span style=&quot;background-color: initial;&quot;&gt;getMemberID: String&lt;/span&gt;&lt;/div&gt;&lt;div&gt;+ getClassID: String&lt;/div&gt;&lt;div&gt;&lt;span style=&quot;background-color: initial;&quot;&gt;+ getRegistrationDate: LocalDate&amp;nbsp;&lt;/span&gt;&lt;/div&gt;&lt;div&gt;+ getSearchKey: String&lt;/div&gt;&lt;div&gt;+ setStatus (status: String)&amp;nbsp;&lt;/div&gt;&lt;div&gt;&lt;span style=&quot;background-color: initial;&quot;&gt;+ lineRepresentation: String&lt;/span&gt;&lt;/div&gt;&lt;/div&gt;&lt;div style=&quot;&quot;&gt;&lt;br&gt;&lt;/div&gt;" style="text;strokeColor=none;fillColor=none;align=left;verticalAlign=top;spacingLeft=4;spacingRight=4;overflow=hidden;rotatable=0;points=[[0,0.5],[1,0.5]];portConstraint=eastwest;whiteSpace=wrap;html=1;labelBackgroundColor=none;fontColor=#1A1A1A;rounded=1;" parent="aKMdua-5Uy_HJUvLc1qy-30" vertex="1">
          <mxGeometry y="108" width="390" height="142" as="geometry" />
        </mxCell>
        <mxCell id="aKMdua-5Uy_HJUvLc1qy-34" value="MemberClassRegistrationDatabase" style="swimlane;fontStyle=1;align=center;verticalAlign=top;childLayout=stackLayout;horizontal=1;startSize=26;horizontalStack=0;resizeParent=1;resizeParentMax=0;resizeLast=0;collapsible=1;marginBottom=0;whiteSpace=wrap;html=1;labelBackgroundColor=none;fillColor=#5D7F99;strokeColor=#D0CEE2;fontColor=#1A1A1A;rounded=1;" parent="1" vertex="1">
          <mxGeometry x="460" y="600" width="340" height="78" as="geometry" />
        </mxCell>
        <mxCell id="aKMdua-5Uy_HJUvLc1qy-35" value="- records: ArrayList&amp;lt;MemberClassRegistration&amp;gt;&lt;div&gt;- fileName: String&lt;/div&gt;" style="text;strokeColor=none;fillColor=none;align=left;verticalAlign=top;spacingLeft=4;spacingRight=4;overflow=hidden;rotatable=0;points=[[0,0.5],[1,0.5]];portConstraint=eastwest;whiteSpace=wrap;html=1;labelBackgroundColor=none;fontColor=#1A1A1A;rounded=1;" parent="aKMdua-5Uy_HJUvLc1qy-34" vertex="1">
          <mxGeometry y="26" width="340" height="44" as="geometry" />
        </mxCell>
        <mxCell id="aKMdua-5Uy_HJUvLc1qy-36" value="" style="line;strokeWidth=1;fillColor=none;align=left;verticalAlign=middle;spacingTop=-1;spacingLeft=3;spacingRight=3;rotatable=0;labelPosition=right;points=[];portConstraint=eastwest;strokeColor=#D0CEE2;labelBackgroundColor=none;fontColor=#1A1A1A;rounded=1;" parent="aKMdua-5Uy_HJUvLc1qy-34" vertex="1">
          <mxGeometry y="70" width="340" height="8" as="geometry" />
        </mxCell>
        <mxCell id="q00j8vEAsBJCaMF-4gGI-24" value="Extends DataBases&amp;lt;&lt;span style=&quot;color: rgb(26, 26, 26); font-size: 12px; text-align: left; text-wrap-mode: wrap;&quot;&gt;Member&lt;/span&gt;&amp;gt;" style="endArrow=block;endSize=16;endFill=0;html=1;rounded=1;exitX=0.5;exitY=0;exitDx=0;exitDy=0;entryX=0.271;entryY=0.446;entryDx=0;entryDy=0;labelBackgroundColor=none;strokeColor=#736CA8;fontColor=default;entryPerimeter=0;" parent="1" source="aKMdua-5Uy_HJUvLc1qy-18" edge="1">
          <mxGeometry width="160" relative="1" as="geometry">
            <mxPoint x="-100" y="584.57" as="sourcePoint" />
            <mxPoint x="64.84999999999991" y="345.998" as="targetPoint" />
          </mxGeometry>
        </mxCell>
        <mxCell id="q00j8vEAsBJCaMF-4gGI-25" value="Extends DataBases&amp;lt;&lt;span style=&quot;text-wrap-mode: wrap; color: rgb(26, 26, 26); font-size: 12px; text-align: left;&quot;&gt;Class&lt;/span&gt;&amp;gt;" style="endArrow=block;endSize=16;endFill=0;html=1;rounded=1;exitX=0.376;exitY=-0.008;exitDx=0;exitDy=0;labelBackgroundColor=none;strokeColor=#736CA8;fontColor=default;exitPerimeter=0;entryX=0.551;entryY=1.04;entryDx=0;entryDy=0;entryPerimeter=0;" parent="1" source="aKMdua-5Uy_HJUvLc1qy-26" target="O5-P1oSjziZnz9pOeTau-6" edge="1">
          <mxGeometry x="-0.2234" y="13" width="160" relative="1" as="geometry">
            <mxPoint x="30" y="651.8600000000001" as="sourcePoint" />
            <mxPoint x="277.8000000000002" y="361.86000000000024" as="targetPoint" />
            <mxPoint y="1" as="offset" />
          </mxGeometry>
        </mxCell>
        <mxCell id="q00j8vEAsBJCaMF-4gGI-26" value="&lt;div style=&quot;text-align: left;&quot;&gt;&lt;span style=&quot;background-color: initial;&quot;&gt;Extends DataBases&amp;lt;&lt;font color=&quot;#1a1a1a&quot;&gt;&lt;span style=&quot;font-size: 12px; text-wrap-mode: wrap;&quot;&gt;MemberClassRegistration&lt;/span&gt;&lt;/font&gt;&lt;/span&gt;&lt;span style=&quot;background-color: initial;&quot;&gt;&amp;gt;&lt;/span&gt;&lt;/div&gt;" style="endArrow=block;endSize=16;endFill=0;html=1;rounded=1;exitX=0.25;exitY=0;exitDx=0;exitDy=0;entryX=0.827;entryY=1.005;entryDx=0;entryDy=0;labelBackgroundColor=none;strokeColor=#736CA8;fontColor=default;entryPerimeter=0;" parent="1" source="aKMdua-5Uy_HJUvLc1qy-34" target="O5-P1oSjziZnz9pOeTau-6" edge="1">
          <mxGeometry width="160" relative="1" as="geometry">
            <mxPoint x="785" y="631.8600000000001" as="sourcePoint" />
            <mxPoint x="354.8000000000002" y="360.00400000000025" as="targetPoint" />
          </mxGeometry>
        </mxCell>
        <mxCell id="O5-P1oSjziZnz9pOeTau-3" value="&lt;i style=&quot;color: rgb(0, 0, 0);&quot;&gt;DataBases&amp;lt;T&amp;gt;&lt;/i&gt;&lt;div&gt;&lt;i style=&quot;color: rgb(0, 0, 0);&quot;&gt;&lt;br&gt;&lt;/i&gt;&lt;/div&gt;" style="swimlane;fontStyle=1;align=center;verticalAlign=top;childLayout=stackLayout;horizontal=1;startSize=26;horizontalStack=0;resizeParent=1;resizeParentMax=0;resizeLast=0;collapsible=1;marginBottom=0;whiteSpace=wrap;html=1;labelBackgroundColor=none;fillColor=#5D7F99;strokeColor=#D0CEE2;fontColor=#1A1A1A;rounded=1;" vertex="1" parent="1">
          <mxGeometry x="-10" y="170" width="260" height="176" as="geometry" />
        </mxCell>
        <mxCell id="O5-P1oSjziZnz9pOeTau-5" value="" style="line;strokeWidth=1;fillColor=none;align=left;verticalAlign=middle;spacingTop=-1;spacingLeft=3;spacingRight=3;rotatable=0;labelPosition=right;points=[];portConstraint=eastwest;strokeColor=#D0CEE2;labelBackgroundColor=none;fontColor=#1A1A1A;rounded=1;" vertex="1" parent="O5-P1oSjziZnz9pOeTau-3">
          <mxGeometry y="26" width="260" height="8" as="geometry" />
        </mxCell>
        <mxCell id="O5-P1oSjziZnz9pOeTau-6" value="+ MemberDatabase( fileName: String)&lt;div&gt;+ readFromFile ()&lt;/div&gt;&lt;div&gt;+ createRecordFrom( line: String): T&lt;/div&gt;&lt;div&gt;+ returnAllRecords(): ArrayList&amp;lt;T&lt;span style=&quot;background-color: initial;&quot;&gt;&amp;gt;&lt;/span&gt;&lt;/div&gt;&lt;div&gt;+ contains( key: String): boolean&lt;/div&gt;&lt;div&gt;+ getRecord( key: String): T&lt;/div&gt;&lt;div&gt;+ insertRecord( record: T): boolean&lt;/div&gt;&lt;div&gt;+ deleteRecord( record: T): boolean&lt;/div&gt;&lt;div&gt;+ saveToFile ()&lt;/div&gt;" style="text;strokeColor=none;fillColor=none;align=left;verticalAlign=top;spacingLeft=4;spacingRight=4;overflow=hidden;rotatable=0;points=[[0,0.5],[1,0.5]];portConstraint=eastwest;whiteSpace=wrap;html=1;labelBackgroundColor=none;fontColor=#1A1A1A;rounded=1;" vertex="1" parent="O5-P1oSjziZnz9pOeTau-3">
          <mxGeometry y="34" width="260" height="142" as="geometry" />
        </mxCell>
        <mxCell id="O5-P1oSjziZnz9pOeTau-7" value="1" style="endArrow=open;html=1;endSize=12;startArrow=diamondThin;startSize=14;startFill=1;edgeStyle=orthogonalEdgeStyle;align=left;verticalAlign=bottom;rounded=1;labelBackgroundColor=none;strokeColor=#736CA8;fontColor=default;exitX=0.5;exitY=0;exitDx=0;exitDy=0;" edge="1" parent="1" source="O5-P1oSjziZnz9pOeTau-18">
          <mxGeometry x="-0.503" y="10" relative="1" as="geometry">
            <mxPoint x="110" y="89.99818181818205" as="sourcePoint" />
            <mxPoint x="111" y="170" as="targetPoint" />
            <mxPoint as="offset" />
            <Array as="points">
              <mxPoint x="-330" y="50" />
              <mxPoint x="111" y="50" />
            </Array>
          </mxGeometry>
        </mxCell>
        <mxCell id="O5-P1oSjziZnz9pOeTau-13" value="TrainerDatabase" style="swimlane;fontStyle=1;align=center;verticalAlign=top;childLayout=stackLayout;horizontal=1;startSize=26;horizontalStack=0;resizeParent=1;resizeParentMax=0;resizeLast=0;collapsible=1;marginBottom=0;whiteSpace=wrap;html=1;labelBackgroundColor=none;fillColor=#5D7F99;strokeColor=#D0CEE2;fontColor=#1A1A1A;rounded=1;" vertex="1" parent="1">
          <mxGeometry x="-380" y="600.0000000000001" width="260" height="78" as="geometry" />
        </mxCell>
        <mxCell id="O5-P1oSjziZnz9pOeTau-14" value="- records: ArrayList&amp;lt;Trainer&amp;gt;&lt;div&gt;- fileName: String&lt;/div&gt;" style="text;strokeColor=none;fillColor=none;align=left;verticalAlign=top;spacingLeft=4;spacingRight=4;overflow=hidden;rotatable=0;points=[[0,0.5],[1,0.5]];portConstraint=eastwest;whiteSpace=wrap;html=1;labelBackgroundColor=none;fontColor=#1A1A1A;rounded=1;" vertex="1" parent="O5-P1oSjziZnz9pOeTau-13">
          <mxGeometry y="26" width="260" height="44" as="geometry" />
        </mxCell>
        <mxCell id="O5-P1oSjziZnz9pOeTau-15" value="" style="line;strokeWidth=1;fillColor=none;align=left;verticalAlign=middle;spacingTop=-1;spacingLeft=3;spacingRight=3;rotatable=0;labelPosition=right;points=[];portConstraint=eastwest;strokeColor=#D0CEE2;labelBackgroundColor=none;fontColor=#1A1A1A;rounded=1;" vertex="1" parent="O5-P1oSjziZnz9pOeTau-13">
          <mxGeometry y="70" width="260" height="8" as="geometry" />
        </mxCell>
        <mxCell id="O5-P1oSjziZnz9pOeTau-17" value="Extends DataBases&amp;lt;&lt;span style=&quot;color: rgb(26, 26, 26); font-size: 12px; text-align: left; text-wrap-mode: wrap;&quot;&gt;Trainer&lt;/span&gt;&amp;gt;" style="endArrow=block;endSize=16;endFill=0;html=1;rounded=1;exitX=0.75;exitY=0;exitDx=0;exitDy=0;entryX=0.271;entryY=0.446;entryDx=0;entryDy=0;labelBackgroundColor=none;strokeColor=#736CA8;fontColor=default;entryPerimeter=0;" edge="1" parent="1" source="O5-P1oSjziZnz9pOeTau-13">
          <mxGeometry x="-0.4211" y="-6" width="160" relative="1" as="geometry">
            <mxPoint x="-250" y="626.4300000000002" as="sourcePoint" />
            <mxPoint x="24.84999999999991" y="345.998" as="targetPoint" />
            <mxPoint y="-1" as="offset" />
          </mxGeometry>
        </mxCell>
        <mxCell id="O5-P1oSjziZnz9pOeTau-18" value="TrainerRole" style="swimlane;fontStyle=1;align=center;verticalAlign=top;childLayout=stackLayout;horizontal=1;startSize=26;horizontalStack=0;resizeParent=1;resizeParentMax=0;resizeLast=0;collapsible=1;marginBottom=0;whiteSpace=wrap;html=1;labelBackgroundColor=none;fillColor=#5D7F99;strokeColor=#D0CEE2;fontColor=#1A1A1A;rounded=1;" vertex="1" parent="1">
          <mxGeometry x="-510" y="153.9000000000001" width="360" height="88" as="geometry" />
        </mxCell>
        <mxCell id="O5-P1oSjziZnz9pOeTau-19" value="- memberDatabase: MemberDatabase&lt;div&gt;- classDatabase: Classdatabase&lt;/div&gt;&lt;div&gt;- registrationDatabase:&amp;nbsp;&lt;span style=&quot;text-align: center; background-color: initial;&quot;&gt;MemberClassRegistrationDatabase&lt;/span&gt;&lt;/div&gt;" style="text;strokeColor=none;fillColor=none;align=left;verticalAlign=top;spacingLeft=4;spacingRight=4;overflow=hidden;rotatable=0;points=[[0,0.5],[1,0.5]];portConstraint=eastwest;whiteSpace=wrap;html=1;labelBackgroundColor=none;fontColor=#1A1A1A;rounded=1;" vertex="1" parent="O5-P1oSjziZnz9pOeTau-18">
          <mxGeometry y="26" width="360" height="54" as="geometry" />
        </mxCell>
        <mxCell id="O5-P1oSjziZnz9pOeTau-20" value="" style="line;strokeWidth=1;fillColor=none;align=left;verticalAlign=middle;spacingTop=-1;spacingLeft=3;spacingRight=3;rotatable=0;labelPosition=right;points=[];portConstraint=eastwest;strokeColor=#D0CEE2;labelBackgroundColor=none;fontColor=#1A1A1A;rounded=1;" vertex="1" parent="O5-P1oSjziZnz9pOeTau-18">
          <mxGeometry y="80" width="360" height="8" as="geometry" />
        </mxCell>
        <mxCell id="O5-P1oSjziZnz9pOeTau-22" value="" style="endArrow=block;startArrow=block;endFill=1;startFill=1;html=1;rounded=0;entryX=0.25;entryY=0;entryDx=0;entryDy=0;exitX=0.539;exitY=0.985;exitDx=0;exitDy=0;exitPerimeter=0;" edge="1" parent="1" source="O5-P1oSjziZnz9pOeTau-21" target="O5-P1oSjziZnz9pOeTau-13">
          <mxGeometry width="160" relative="1" as="geometry">
            <mxPoint x="-280.66999999999996" y="453.9" as="sourcePoint" />
            <mxPoint x="-280.5100000000001" y="557.8000000000001" as="targetPoint" />
            <Array as="points" />
          </mxGeometry>
        </mxCell>
        <mxCell id="O5-P1oSjziZnz9pOeTau-25" value="AdminRole" style="swimlane;fontStyle=1;align=center;verticalAlign=top;childLayout=stackLayout;horizontal=1;startSize=26;horizontalStack=0;resizeParent=1;resizeParentMax=0;resizeLast=0;collapsible=1;marginBottom=0;whiteSpace=wrap;html=1;labelBackgroundColor=none;fillColor=#5D7F99;strokeColor=#D0CEE2;fontColor=#1A1A1A;rounded=1;" vertex="1" parent="1">
          <mxGeometry x="-827" y="560" width="320" height="160" as="geometry" />
        </mxCell>
        <mxCell id="O5-P1oSjziZnz9pOeTau-26" value="- trainerDataBase: TraierDataBase" style="text;strokeColor=none;fillColor=none;align=left;verticalAlign=top;spacingLeft=4;spacingRight=4;overflow=hidden;rotatable=0;points=[[0,0.5],[1,0.5]];portConstraint=eastwest;whiteSpace=wrap;html=1;labelBackgroundColor=none;fontColor=#1A1A1A;rounded=1;" vertex="1" parent="O5-P1oSjziZnz9pOeTau-25">
          <mxGeometry y="26" width="320" height="26" as="geometry" />
        </mxCell>
        <mxCell id="O5-P1oSjziZnz9pOeTau-27" value="" style="line;strokeWidth=1;fillColor=none;align=left;verticalAlign=middle;spacingTop=-1;spacingLeft=3;spacingRight=3;rotatable=0;labelPosition=right;points=[];portConstraint=eastwest;strokeColor=#D0CEE2;labelBackgroundColor=none;fontColor=#1A1A1A;rounded=1;" vertex="1" parent="O5-P1oSjziZnz9pOeTau-25">
          <mxGeometry y="52" width="320" height="8" as="geometry" />
        </mxCell>
        <mxCell id="O5-P1oSjziZnz9pOeTau-28" value="&lt;div&gt;+ AdminRole&lt;/div&gt;+&amp;nbsp;&lt;span style=&quot;background-color: initial;&quot;&gt;addTrainer (trainerId: String, name: String, email: String, specialty: String, &lt;/span&gt;&lt;span style=&quot;background-color: initial;&quot;&gt;phoneNumber: String)&lt;/span&gt;&lt;div&gt;&lt;span style=&quot;background-color: initial;&quot;&gt;+ getListOfTrainers&lt;br&gt;&lt;/span&gt;&lt;/div&gt;&lt;div&gt;&lt;span style=&quot;background-color: initial;&quot;&gt;+ removeTrainer (key: String)&lt;br&gt;&lt;/span&gt;&lt;/div&gt;&lt;div&gt;&lt;span style=&quot;background-color: initial;&quot;&gt;+&amp;nbsp;&lt;/span&gt;&lt;span style=&quot;background-color: initial;&quot;&gt;logout&lt;/span&gt;&lt;/div&gt;" style="text;strokeColor=none;fillColor=none;align=left;verticalAlign=top;spacingLeft=4;spacingRight=4;overflow=hidden;rotatable=0;points=[[0,0.5],[1,0.5]];portConstraint=eastwest;whiteSpace=wrap;html=1;labelBackgroundColor=none;fontColor=#1A1A1A;rounded=1;" vertex="1" parent="O5-P1oSjziZnz9pOeTau-25">
          <mxGeometry y="60" width="320" height="100" as="geometry" />
        </mxCell>
        <mxCell id="O5-P1oSjziZnz9pOeTau-29" value="1" style="endArrow=open;html=1;endSize=12;startArrow=diamondThin;startSize=14;startFill=1;edgeStyle=orthogonalEdgeStyle;align=left;verticalAlign=bottom;rounded=1;labelBackgroundColor=none;strokeColor=#736CA8;fontColor=default;" edge="1" parent="1">
          <mxGeometry x="-1" y="3" relative="1" as="geometry">
            <mxPoint x="-507" y="639.4699999999998" as="sourcePoint" />
            <mxPoint x="-377" y="639" as="targetPoint" />
          </mxGeometry>
        </mxCell>
        <mxCell id="O5-P1oSjziZnz9pOeTau-30" value="Trainer" style="swimlane;fontStyle=1;align=center;verticalAlign=top;childLayout=stackLayout;horizontal=1;startSize=26;horizontalStack=0;resizeParent=1;resizeParentMax=0;resizeLast=0;collapsible=1;marginBottom=0;whiteSpace=wrap;html=1;labelBackgroundColor=none;fillColor=#5D7F99;strokeColor=#D0CEE2;fontColor=#1A1A1A;rounded=1;" vertex="1" parent="1">
          <mxGeometry x="-710" y="770" width="360" height="190" as="geometry" />
        </mxCell>
        <mxCell id="O5-P1oSjziZnz9pOeTau-31" value="- trainerId: String&lt;div&gt;- name: String&lt;/div&gt;&lt;div&gt;- email: String&lt;/div&gt;&lt;div&gt;- speciality: String&lt;/div&gt;&lt;div&gt;- phoneNumber: String&lt;/div&gt;" style="text;strokeColor=none;fillColor=none;align=left;verticalAlign=top;spacingLeft=4;spacingRight=4;overflow=hidden;rotatable=0;points=[[0,0.5],[1,0.5]];portConstraint=eastwest;whiteSpace=wrap;html=1;labelBackgroundColor=none;fontColor=#1A1A1A;rounded=1;" vertex="1" parent="O5-P1oSjziZnz9pOeTau-30">
          <mxGeometry y="26" width="360" height="84" as="geometry" />
        </mxCell>
        <mxCell id="O5-P1oSjziZnz9pOeTau-32" value="" style="line;strokeWidth=1;fillColor=none;align=left;verticalAlign=middle;spacingTop=-1;spacingLeft=3;spacingRight=3;rotatable=0;labelPosition=right;points=[];portConstraint=eastwest;strokeColor=#D0CEE2;labelBackgroundColor=none;fontColor=#1A1A1A;rounded=1;" vertex="1" parent="O5-P1oSjziZnz9pOeTau-30">
          <mxGeometry y="110" width="360" height="8" as="geometry" />
        </mxCell>
        <mxCell id="O5-P1oSjziZnz9pOeTau-33" value="+ Trainer( trainerId: String,&amp;nbsp;&lt;span style=&quot;background-color: initial;&quot;&gt;name: String,&amp;nbsp;&lt;/span&gt;&lt;span style=&quot;background-color: initial;&quot;&gt;email: String,&amp;nbsp;&lt;/span&gt;&lt;span style=&quot;background-color: initial;&quot;&gt;speciality: String,&amp;nbsp;&lt;/span&gt;&lt;span style=&quot;background-color: initial;&quot;&gt;phoneNumber: String)&lt;/span&gt;&lt;div&gt;&lt;span style=&quot;background-color: initial;&quot;&gt;+ lineRepresentation: String&lt;/span&gt;&lt;/div&gt;&lt;div&gt;&lt;span style=&quot;background-color: initial;&quot;&gt;+ getSearchkey: String&lt;/span&gt;&lt;/div&gt;" style="text;strokeColor=none;fillColor=none;align=left;verticalAlign=top;spacingLeft=4;spacingRight=4;overflow=hidden;rotatable=0;points=[[0,0.5],[1,0.5]];portConstraint=eastwest;whiteSpace=wrap;html=1;labelBackgroundColor=none;fontColor=#1A1A1A;rounded=1;" vertex="1" parent="O5-P1oSjziZnz9pOeTau-30">
          <mxGeometry y="118" width="360" height="72" as="geometry" />
        </mxCell>
        <mxCell id="O5-P1oSjziZnz9pOeTau-34" value="1" style="endArrow=open;html=1;endSize=12;startArrow=diamondThin;startSize=14;startFill=0;edgeStyle=orthogonalEdgeStyle;align=left;verticalAlign=bottom;rounded=0;exitX=0.388;exitY=0.5;exitDx=0;exitDy=0;exitPerimeter=0;entryX=0.5;entryY=0;entryDx=0;entryDy=0;" edge="1" parent="1" source="O5-P1oSjziZnz9pOeTau-15" target="O5-P1oSjziZnz9pOeTau-30">
          <mxGeometry x="-1" y="3" relative="1" as="geometry">
            <mxPoint x="-310" y="720" as="sourcePoint" />
            <mxPoint x="-190" y="720.71" as="targetPoint" />
            <Array as="points">
              <mxPoint x="-279" y="740" />
              <mxPoint x="-530" y="740" />
            </Array>
          </mxGeometry>
        </mxCell>
        <mxCell id="O5-P1oSjziZnz9pOeTau-35" value="Class" style="swimlane;fontStyle=1;align=center;verticalAlign=top;childLayout=stackLayout;horizontal=1;startSize=26;horizontalStack=0;resizeParent=1;resizeParentMax=0;resizeLast=0;collapsible=1;marginBottom=0;whiteSpace=wrap;html=1;labelBackgroundColor=none;fillColor=#5D7F99;strokeColor=#D0CEE2;fontColor=#1A1A1A;rounded=1;" vertex="1" parent="1">
          <mxGeometry x="110" y="770" width="330" height="220" as="geometry" />
        </mxCell>
        <mxCell id="O5-P1oSjziZnz9pOeTau-36" value="&lt;div&gt;- classID:&amp;nbsp;String&lt;/div&gt;&lt;div&gt;- className:&amp;nbsp;String&lt;/div&gt;&lt;div&gt;- trainerID:&amp;nbsp;String&lt;/div&gt;&lt;div&gt;- duration: int&lt;/div&gt;&lt;div&gt;- availableSeats: int.&lt;/div&gt;" style="text;strokeColor=none;fillColor=none;align=left;verticalAlign=top;spacingLeft=4;spacingRight=4;overflow=hidden;rotatable=0;points=[[0,0.5],[1,0.5]];portConstraint=eastwest;whiteSpace=wrap;html=1;labelBackgroundColor=none;fontColor=#1A1A1A;rounded=1;" vertex="1" parent="O5-P1oSjziZnz9pOeTau-35">
          <mxGeometry y="26" width="330" height="84" as="geometry" />
        </mxCell>
        <mxCell id="O5-P1oSjziZnz9pOeTau-37" value="" style="line;strokeWidth=1;fillColor=none;align=left;verticalAlign=middle;spacingTop=-1;spacingLeft=3;spacingRight=3;rotatable=0;labelPosition=right;points=[];portConstraint=eastwest;strokeColor=#D0CEE2;labelBackgroundColor=none;fontColor=#1A1A1A;rounded=1;" vertex="1" parent="O5-P1oSjziZnz9pOeTau-35">
          <mxGeometry y="110" width="330" height="8" as="geometry" />
        </mxCell>
        <mxCell id="O5-P1oSjziZnz9pOeTau-38" value="&lt;div&gt;+ Class(&lt;span style=&quot;background-color: initial;&quot;&gt;classID:&amp;nbsp;String,&amp;nbsp;&lt;/span&gt;&lt;span style=&quot;background-color: initial;&quot;&gt;className:&amp;nbsp;String,&amp;nbsp;&lt;/span&gt;&lt;span style=&quot;background-color: initial;&quot;&gt;trainerID:&amp;nbsp;String,&lt;/span&gt;&lt;/div&gt;&lt;div&gt;&lt;span style=&quot;background-color: initial;&quot;&gt;&amp;nbsp;duration: int,&amp;nbsp;&lt;/span&gt;&lt;span style=&quot;background-color: initial;&quot;&gt;availableSeats: int)&lt;/span&gt;&lt;/div&gt;+&amp;nbsp;getAvailableSeats: int&lt;div&gt;+&amp;nbsp;setAvailableSeats (int availableSeats)&lt;/div&gt;&lt;div&gt;+&amp;nbsp;lineRepresentation: String&lt;/div&gt;&lt;div&gt;+&amp;nbsp;getSearchKey: String&lt;/div&gt;" style="text;strokeColor=none;fillColor=none;align=left;verticalAlign=top;spacingLeft=4;spacingRight=4;overflow=hidden;rotatable=0;points=[[0,0.5],[1,0.5]];portConstraint=eastwest;whiteSpace=wrap;html=1;labelBackgroundColor=none;fontColor=#1A1A1A;rounded=1;" vertex="1" parent="O5-P1oSjziZnz9pOeTau-35">
          <mxGeometry y="118" width="330" height="102" as="geometry" />
        </mxCell>
        <mxCell id="O5-P1oSjziZnz9pOeTau-39" value="1" style="endArrow=open;html=1;endSize=12;startArrow=diamondThin;startSize=14;startFill=0;edgeStyle=orthogonalEdgeStyle;align=left;verticalAlign=bottom;rounded=0;exitX=0.408;exitY=1.055;exitDx=0;exitDy=0;exitPerimeter=0;entryX=0.5;entryY=0;entryDx=0;entryDy=0;" edge="1" parent="1" source="aKMdua-5Uy_HJUvLc1qy-27" target="O5-P1oSjziZnz9pOeTau-35">
          <mxGeometry x="-1" y="3" relative="1" as="geometry">
            <mxPoint x="240" y="730" as="sourcePoint" />
            <mxPoint x="400" y="730" as="targetPoint" />
            <Array as="points">
              <mxPoint x="286" y="720" />
              <mxPoint x="275" y="720" />
            </Array>
          </mxGeometry>
        </mxCell>
        <mxCell id="O5-P1oSjziZnz9pOeTau-40" value="1" style="endArrow=open;html=1;endSize=12;startArrow=diamondThin;startSize=14;startFill=0;edgeStyle=orthogonalEdgeStyle;align=left;verticalAlign=bottom;rounded=0;exitX=0.408;exitY=1.055;exitDx=0;exitDy=0;exitPerimeter=0;entryX=0.5;entryY=0;entryDx=0;entryDy=0;" edge="1" parent="1">
          <mxGeometry x="-1" y="3" relative="1" as="geometry">
            <mxPoint x="-10" y="678" as="sourcePoint" />
            <mxPoint x="-21" y="776" as="targetPoint" />
            <Array as="points">
              <mxPoint x="-10" y="726" />
              <mxPoint x="-21" y="726" />
            </Array>
          </mxGeometry>
        </mxCell>
        <mxCell id="O5-P1oSjziZnz9pOeTau-41" value="1" style="endArrow=open;html=1;endSize=12;startArrow=diamondThin;startSize=14;startFill=0;edgeStyle=orthogonalEdgeStyle;align=left;verticalAlign=bottom;rounded=0;exitX=0.408;exitY=1.055;exitDx=0;exitDy=0;exitPerimeter=0;entryX=0.5;entryY=0;entryDx=0;entryDy=0;" edge="1" parent="1">
          <mxGeometry x="-1" y="3" relative="1" as="geometry">
            <mxPoint x="650.5" y="672" as="sourcePoint" />
            <mxPoint x="639.5" y="770" as="targetPoint" />
            <Array as="points">
              <mxPoint x="650.5" y="720" />
              <mxPoint x="639.5" y="720" />
            </Array>
          </mxGeometry>
        </mxCell>
        <mxCell id="O5-P1oSjziZnz9pOeTau-21" value="+ TrainerRole&lt;div&gt;+&amp;nbsp;&lt;span style=&quot;background-color: initial;&quot;&gt;addMember (memberID: String, name: String, membershipType: String, email: String, &lt;/span&gt;&lt;span style=&quot;background-color: initial;&quot;&gt;phoneNumber: String, status: String): boolean&lt;/span&gt;&lt;/div&gt;&lt;div&gt;&lt;span style=&quot;background-color: initial;&quot;&gt;+ getListOfMembers: ArrayList&amp;lt;Member&amp;gt;&lt;/span&gt;&lt;/div&gt;&lt;div&gt;&lt;span style=&quot;background-color: initial;&quot;&gt;+ addClass (classID: String, className: String, trainerID: String, duration: int,&amp;nbsp;&lt;/span&gt;&lt;span style=&quot;background-color: initial;&quot;&gt;maxParticipants: int): boolean&lt;/span&gt;&lt;/div&gt;&lt;div&gt;&lt;span style=&quot;background-color: initial;&quot;&gt;+ getListOfClasses: ArrayList&amp;lt;Classes&amp;gt;&lt;/span&gt;&lt;/div&gt;&lt;div&gt;&lt;span style=&quot;background-color: initial;&quot;&gt;&lt;div&gt;+ registerMemberForClass (memberID: String, classID: String, registrationDate: LocalDate): boolean&lt;/div&gt;&lt;div&gt;&lt;span style=&quot;background-color: initial;&quot;&gt;+ cancelRegistration (memberID: String:, classID: String): boolean&lt;/span&gt;&lt;/div&gt;&lt;div&gt;&lt;span style=&quot;background-color: initial;&quot;&gt;+ getListOfRegistrations ():ArrayList&amp;lt;MemberClassRegistration&amp;gt;&lt;/span&gt;&lt;/div&gt;&lt;div&gt;&lt;span style=&quot;background-color: initial;&quot;&gt;+ logout ()&lt;/span&gt;&lt;/div&gt;&lt;/span&gt;&lt;/div&gt;" style="text;strokeColor=none;fillColor=none;align=left;verticalAlign=top;spacingLeft=4;spacingRight=4;overflow=hidden;rotatable=0;points=[[0,0.5],[1,0.5]];portConstraint=eastwest;whiteSpace=wrap;html=1;labelBackgroundColor=none;fontColor=#1A1A1A;rounded=1;" vertex="1" parent="1">
          <mxGeometry x="-550" y="270.0000000000001" width="360" height="212" as="geometry" />
        </mxCell>
      </root>
    </mxGraphModel>
  </diagram>
</mxfile>
